<svg xmlns="http://www.w3.org/2000/svg" width="175" height="32.944" viewBox="0 0 175 32.944"><path d="M35.725,54.052a1.076,1.076,0,0,1-.664.2H30.676a.64.64,0,0,1-.562-.232.793.793,0,0,1-.033-.7l9.628-24.033a1,1,0,0,1,1-.795h3.257a1.107,1.107,0,0,1,1.063.795l9.493,24.033a.714.714,0,0,1,.033.7.731.731,0,0,1-.631.232H49.6a1.062,1.062,0,0,1-.994-.731L47.144,49.6H37.452l-1.329,3.917A1.209,1.209,0,0,1,35.725,54.052Zm9.758-9.163L42.3,35.862,39.11,44.889Zm12.282,9.129a.8.8,0,0,1-.266-.631V29.354a.886.886,0,0,1,.232-.6.724.724,0,0,1,.565-.266H66.99a13.532,13.532,0,0,1,6.738,1.658,11.957,11.957,0,0,1,4.615,4.581A13.219,13.219,0,0,1,80,41.375a13.258,13.258,0,0,1-1.692,6.771,11.643,11.643,0,0,1-4.676,4.51,13.879,13.879,0,0,1-6.643,1.594H58.3A.813.813,0,0,1,57.765,54.019Zm14.472-7.307a7.319,7.319,0,0,0,2.126-5.345,7.393,7.393,0,0,0-2.126-5.409A7.068,7.068,0,0,0,66.99,33.8H63.077v15.07H66.99a7.066,7.066,0,0,0,5.248-2.157ZM83.53,53.649V29.155a.587.587,0,0,1,.664-.664H88.71a1.544,1.544,0,0,1,1.262.728l10.755,15.6V29.155c0-.443.2-.664.6-.664H105.7q.6,0,.6.664v24.5a.529.529,0,0,1-.6.6h-4.189a1.375,1.375,0,0,1-1.194-.731l-11.153-16.4V53.658a.529.529,0,0,1-.6.6H84.188q-.664,0-.664-.6ZM107.954,57.5a.709.709,0,0,1,0-.731l9.561-23.967a1.344,1.344,0,0,1,.432-.562,1.012,1.012,0,0,1,.631-.221h3.253a1.107,1.107,0,0,1,1.063.795l9.559,23.967q.332,1-.664,1h-4.316a1,1,0,0,1-.994-.8l-6.242-16.806L114,56.979a1.328,1.328,0,0,1-.443.565,1.012,1.012,0,0,1-.631.221h-4.369a.7.7,0,0,1-.6-.261ZM136,50.467a1.107,1.107,0,0,1-.432-.6l-9.557-24.033a.635.635,0,0,1,.6-.994h4.382a1.107,1.107,0,0,1,.629.2.848.848,0,0,1,.365.6l6.242,16.8,6.306-16.8a.994.994,0,0,1,.332-.562.886.886,0,0,1,.6-.232h4.38a.686.686,0,0,1,.631.266.651.651,0,0,1-.033.664l-9.559,24.1a.937.937,0,0,1-.365.565,1.012,1.012,0,0,1-.631.232h-3.253a1.118,1.118,0,0,1-.631-.2Zm17.03,2.921V29.354a.761.761,0,0,1,.861-.861h16.465a.763.763,0,0,1,.864.861v3.518a.764.764,0,0,1-.864.864H158.609v5.046h9.1q.926,0,.928.864V42.9q0,.8-.928.8h-9.1V49.01H170.36a1.346,1.346,0,0,1,.93.3.99.99,0,0,1,.332.764v3.12a.99.99,0,0,1-.332.764,1.346,1.346,0,0,1-.93.3H153.895a.767.767,0,0,1-.861-.868Zm22.207.7a.675.675,0,0,1-.166-.631l2.79-24.033q.066-.859.864-.861h5.11a1,1,0,0,1,1,.795l5.179,16.266,5.243-16.266a1,1,0,0,1,1-.795h5.179q.728,0,.861.861l2.724,24.033a.764.764,0,0,1-.864.864h-3.986a.906.906,0,0,1-.93-.8l-1.526-15.336L193,52.923a1.058,1.058,0,0,1-.332.6,1.087,1.087,0,0,1-.6.133h-4.114a.946.946,0,0,1-.531-.133.839.839,0,0,1-.266-.6l-4.778-14.738-1.594,15.336a.774.774,0,0,1-.864.8h-3.988a.939.939,0,0,1-.691-.233Z" transform="translate(-30.015 -24.836)" fill="#ff3c00"/></svg>